<svg width="14" height="12" viewBox="0 0 14 12" fill="none" xmlns="http://www.w3.org/2000/svg">
<path d="M7.47392 0.490288L13.1181 10.266C13.2042 10.415 13.2495 10.5841 13.2495 10.7563C13.2495 10.9284 13.2042 11.0975 13.1181 11.2465C13.0321 11.3956 12.9083 11.5194 12.7592 11.6055C12.6102 11.6915 12.4411 11.7368 12.2689 11.7368H0.98055C0.808426 11.7368 0.639334 11.6915 0.490271 11.6055C0.341209 11.5194 0.217426 11.3956 0.131366 11.2465C0.0453054 11.0975 -1.09318e-06 10.9284 0 10.7563C1.09322e-06 10.5841 0.0453097 10.415 0.131372 10.266L5.77556 0.490288C6.15276 -0.163429 7.09607 -0.163429 7.47392 0.490288ZM6.62474 8.23814C6.45136 8.23814 6.28509 8.30701 6.16249 8.42961C6.0399 8.55221 5.97102 8.71848 5.97102 8.89186C5.97102 9.06523 6.0399 9.23151 6.16249 9.35411C6.28509 9.4767 6.45136 9.54557 6.62474 9.54557C6.79812 9.54557 6.96439 9.4767 7.08699 9.35411C7.20958 9.23151 7.27846 9.06523 7.27846 8.89186C7.27846 8.71848 7.20958 8.55221 7.08699 8.42961C6.96439 8.30701 6.79812 8.23814 6.62474 8.23814ZM6.62474 3.66212C6.46462 3.66214 6.31008 3.72093 6.19043 3.82733C6.07078 3.93372 5.99433 4.08034 5.9756 4.23935L5.97102 4.31584V6.93071C5.97121 7.09733 6.03501 7.25759 6.14939 7.37874C6.26377 7.4999 6.4201 7.57281 6.58643 7.58258C6.75276 7.59234 6.91655 7.53822 7.04432 7.43128C7.17209 7.32434 7.2542 7.17264 7.27388 7.00719L7.27846 6.93071V4.31584C7.27846 4.14246 7.20958 3.97619 7.08699 3.85359C6.96439 3.731 6.79812 3.66212 6.62474 3.66212Z" fill="#FF0004"/>
</svg>
