<svg width="22" height="22" viewBox="0 0 22 22" fill="none" xmlns="http://www.w3.org/2000/svg">
<rect x="0.5" y="0.5" width="20.1296" height="20.1296" fill="white" stroke="#979797"/>
<g clip-path="url(#clip0_43_7460)">
<path d="M16.4 12.2C16.2409 12.2 16.0883 12.2632 15.9757 12.3757C15.8632 12.4883 15.8 12.6409 15.8 12.8V15.2C15.8 15.3591 15.7368 15.5117 15.6243 15.6243C15.5117 15.7368 15.3591 15.8 15.2 15.8H6.8C6.64087 15.8 6.48826 15.7368 6.37574 15.6243C6.26321 15.5117 6.2 15.3591 6.2 15.2V12.8C6.2 12.6409 6.13679 12.4883 6.02426 12.3757C5.91174 12.2632 5.75913 12.2 5.6 12.2C5.44087 12.2 5.28826 12.2632 5.17574 12.3757C5.06321 12.4883 5 12.6409 5 12.8V15.2C5 15.6774 5.18964 16.1352 5.52721 16.4728C5.86477 16.8104 6.32261 17 6.8 17H15.2C15.6774 17 16.1352 16.8104 16.4728 16.4728C16.8104 16.1352 17 15.6774 17 15.2V12.8C17 12.6409 16.9368 12.4883 16.8243 12.3757C16.7117 12.2632 16.5591 12.2 16.4 12.2ZM10.574 13.226C10.6311 13.2806 10.6983 13.3234 10.772 13.352C10.8438 13.3837 10.9215 13.4001 11 13.4001C11.0785 13.4001 11.1562 13.3837 11.228 13.352C11.3017 13.3234 11.3689 13.2806 11.426 13.226L13.826 10.826C13.939 10.713 14.0025 10.5598 14.0025 10.4C14.0025 10.2402 13.939 10.087 13.826 9.974C13.713 9.86102 13.5598 9.79755 13.4 9.79755C13.2402 9.79755 13.087 9.86102 12.974 9.974L11.6 11.354V5.6C11.6 5.44087 11.5368 5.28826 11.4243 5.17574C11.3117 5.06321 11.1591 5 11 5C10.8409 5 10.6883 5.06321 10.5757 5.17574C10.4632 5.28826 10.4 5.44087 10.4 5.6V11.354L9.026 9.974C8.97006 9.91806 8.90364 9.87368 8.83055 9.8434C8.75746 9.81313 8.67912 9.79755 8.6 9.79755C8.52088 9.79755 8.44254 9.81313 8.36945 9.8434C8.29636 9.87368 8.22994 9.91806 8.174 9.974C8.11806 10.0299 8.07368 10.0964 8.0434 10.1695C8.01313 10.2425 7.99755 10.3209 7.99755 10.4C7.99755 10.4791 8.01313 10.5575 8.0434 10.6305C8.07368 10.7036 8.11806 10.7701 8.174 10.826L10.574 13.226Z" fill="#4D4D4D"/>
</g>
<defs>
<clipPath id="clip0_43_7460">
<rect width="12" height="12" fill="white" transform="translate(5 5)"/>
</clipPath>
</defs>
</svg>
