<svg width="30" height="30" viewBox="0 0 30 30" fill="none" xmlns="http://www.w3.org/2000/svg">
<g clip-path="url(#clip0_401_1018)">
<path d="M15 0C23.291 0 30 6.70898 30 15C30 23.291 23.291 30 15 30C6.70898 30 0 23.291 0 15C0 6.70898 6.70898 0 15 0ZM15 28.1543C22.2363 28.1543 28.125 22.2363 28.125 15C28.125 7.76367 22.2363 1.875 15 1.875C7.76367 1.875 1.875 7.76367 1.875 15C1.875 22.2363 7.76367 28.1543 15 28.1543ZM13.9746 15.9375H8.4375C7.91016 15.9375 7.5 15.5273 7.5 15C7.5 14.4727 7.91016 14.0625 8.4375 14.0625H21.5625C22.0898 14.0625 22.5 14.4727 22.5 15C22.5 15.5273 22.0898 15.9375 21.5625 15.9375H13.9746Z" fill="#1976D2"/>
</g>
<defs>
<clipPath id="clip0_401_1018">
<rect width="30" height="30" fill="white"/>
</clipPath>
</defs>
</svg>
