<svg width="30" height="30" viewBox="0 0 30 30" fill="none" xmlns="http://www.w3.org/2000/svg">
<path d="M24.6439 21.6263C24.6227 21.6038 22.4977 19.3088 22.4814 13.7262C22.4738 12.1762 21.9869 10.6665 21.0875 9.40415C20.188 8.14176 18.9202 7.18848 17.4577 6.675L17.5002 6.25C17.5002 4.87125 16.3802 3.75 15.0002 3.75C13.6202 3.75 12.5002 4.87125 12.5002 6.25L12.5427 6.6725C9.62267 7.6925 7.51892 10.4675 7.51892 13.73C7.51892 19.3075 5.38017 21.6 5.36767 21.6125C5.19292 21.7875 5.07388 22.0103 5.02558 22.2529C4.97728 22.4955 5.00187 22.7469 5.09626 22.9755C5.19064 23.2041 5.35059 23.3996 5.55594 23.5375C5.76129 23.6753 6.00285 23.7493 6.25017 23.75H10.1789C10.7377 25.9 12.6777 27.5 15.0002 27.5C17.3227 27.5 19.2627 25.9 19.8214 23.75H23.7502C24.2502 23.75 24.6977 23.4462 24.8939 22.9875C25.0902 22.5287 24.9889 21.9888 24.6439 21.6263ZM15.0002 8.75C17.7364 8.75 19.9727 10.9863 19.9802 13.7338C19.9827 14.6438 20.0377 15.4788 20.1277 16.25H9.87767C9.96642 15.4788 10.0189 14.6425 10.0189 13.73C10.0209 12.4096 10.5464 11.1439 11.4802 10.2104C12.4139 9.27682 13.6798 8.75165 15.0002 8.75ZM15.0002 25C14.5632 24.9991 14.1342 24.883 13.7563 24.6636C13.3785 24.4442 13.0651 24.1291 12.8477 23.75H17.1514C16.9341 24.1289 16.6209 24.4439 16.2433 24.6633C15.8657 24.8827 15.4369 24.9988 15.0002 25ZM8.51767 21.25C8.95767 20.33 9.39892 19.0863 9.69017 17.5H20.3177C20.6102 19.0863 21.0527 20.33 21.4902 21.25H8.51767Z" fill="#1976D2"/>
</svg>
