<svg width="17" height="20" viewBox="0 0 17 20" fill="none" xmlns="http://www.w3.org/2000/svg">
<path fill-rule="evenodd" clip-rule="evenodd" d="M13.2496 2.81879e-07C12.7741 -0.000159224 12.3044 0.10402 11.8735 0.305189C11.4427 0.506359 11.0612 0.799617 10.7561 1.16428C10.4509 1.52894 10.2295 1.95611 10.1074 2.41567C9.98534 2.87523 9.9656 3.35598 10.0496 3.824L5.31958 7.136L5.25158 7.189C4.77172 6.81388 4.1961 6.58116 3.59037 6.51737C2.98463 6.45358 2.37316 6.5613 1.82568 6.82823C1.27821 7.09516 0.816759 7.51057 0.493959 8.02708C0.171159 8.54359 0 9.14042 0 9.7495C0 10.3586 0.171159 10.9554 0.493959 11.4719C0.816759 11.9884 1.27821 12.4038 1.82568 12.6708C2.37316 12.9377 2.98463 13.0454 3.59037 12.9816C4.1961 12.9178 4.77172 12.6851 5.25158 12.31L5.31958 12.364L10.0496 15.676C10.0163 15.8627 9.99958 16.054 9.99958 16.25C9.99971 17.0205 10.2736 17.7659 10.7723 18.3531C11.271 18.9404 11.9622 19.3315 12.7224 19.4564C13.4827 19.5814 14.2627 19.4322 14.9231 19.0354C15.5836 18.6387 16.0817 18.0202 16.3284 17.2903C16.5752 16.5604 16.5546 15.7666 16.2703 15.0504C15.9861 14.3343 15.4566 13.7425 14.7765 13.3805C14.0963 13.0185 13.3097 12.9099 12.5569 13.0741C11.8042 13.2383 11.1342 13.6646 10.6666 14.277L6.18758 11.14C6.38758 10.718 6.49958 10.247 6.49958 9.749C6.49958 9.251 6.38758 8.779 6.18758 8.358L10.6676 5.222C11.0031 5.66147 11.4451 6.00809 11.9519 6.22908C12.4587 6.45007 13.0134 6.53812 13.5637 6.48491C14.114 6.4317 14.6417 6.23898 15.0967 5.92498C15.5518 5.61098 15.9192 5.18609 16.1643 4.69049C16.4093 4.19489 16.5239 3.64496 16.4971 3.09274C16.4704 2.54051 16.3032 2.00424 16.0114 1.53465C15.7196 1.06506 15.3128 0.677667 14.8295 0.409126C14.3463 0.140585 13.8025 -0.000229955 13.2496 2.81879e-07ZM11.4996 3.25C11.4996 2.78587 11.684 2.34075 12.0121 2.01256C12.3403 1.68437 12.7855 1.5 13.2496 1.5C13.7137 1.5 14.1588 1.68437 14.487 2.01256C14.8152 2.34075 14.9996 2.78587 14.9996 3.25C14.9996 3.71413 14.8152 4.15925 14.487 4.48744C14.1588 4.81563 13.7137 5 13.2496 5C12.7855 5 12.3403 4.81563 12.0121 4.48744C11.684 4.15925 11.4996 3.71413 11.4996 3.25ZM3.24958 8C2.78546 8 2.34034 8.18437 2.01215 8.51256C1.68396 8.84075 1.49958 9.28587 1.49958 9.75C1.49958 10.2141 1.68396 10.6592 2.01215 10.9874C2.34034 11.3156 2.78546 11.5 3.24958 11.5C3.71371 11.5 4.15883 11.3156 4.48702 10.9874C4.81521 10.6592 4.99958 10.2141 4.99958 9.75C4.99958 9.28587 4.81521 8.84075 4.48702 8.51256C4.15883 8.18437 3.71371 8 3.24958 8ZM13.2496 14.5C12.7855 14.5 12.3403 14.6844 12.0121 15.0126C11.684 15.3408 11.4996 15.7859 11.4996 16.25C11.4996 16.7141 11.684 17.1592 12.0121 17.4874C12.3403 17.8156 12.7855 18 13.2496 18C13.7137 18 14.1588 17.8156 14.487 17.4874C14.8152 17.1592 14.9996 16.7141 14.9996 16.25C14.9996 15.7859 14.8152 15.3408 14.487 15.0126C14.1588 14.6844 13.7137 14.5 13.2496 14.5Z" fill="#4D4D4D"/>
</svg>
